<?xml version="1.0" encoding="UTF-8"?>
<svg width="200px" height="200px" viewBox="0 0 200 200" version="1.1" xmlns="http://www.w3.org/2000/svg" xmlns:xlink="http://www.w3.org/1999/xlink">
    <!-- Generator: Sketch 54.1 (76490) - https://sketchapp.com -->
    <title>pomona-pitzer</title>
    <desc>Created with Sketch.</desc>
    <defs>
        <polygon id="path-1" points="0.000425274996 1.07565777 118.0123 1.07565777 118.0123 196.026363 0.000425274996 196.026363"></polygon>
    </defs>
    <g id="pomona-pitzer" stroke="none" stroke-width="1" fill="none" fill-rule="evenodd">
        <g id="pomona-pitzer_BGL">
            <g id="Group-46" transform="translate(40.000000, 0.000000)">
                <g id="Group-3" transform="translate(0.000000, 3.017219)">
                    <mask id="mask-2" fill="white">
                        <use xlink:href="#path-1"></use>
                    </mask>
                    <g id="Clip-2"></g>
                    <path d="M60.1845144,1.07735099 C60.1845144,1.07735099 71.7447033,0.725033113 82.1188589,10.1846358 C82.1188589,10.1846358 93.84697,7.28529801 97.4196144,10.1846358 C97.4196144,10.1846358 99.2958478,11.3011921 97.5042367,15.8111258 C97.5042367,15.8111258 89.8538589,26.0203974 89.5999922,31.2230464 L89.0063144,53.5343046 C89.0063144,53.5343046 89.1028367,55.0468874 92.6887033,54.9528477 C92.6887033,54.9528477 94.4036256,54.5250331 95.2472033,56.8243709 C95.2472033,56.8243709 95.2842256,58.282649 96.5971922,58.1078146 C96.5971922,58.1078146 100.208181,57.1011921 100.922181,59.9091391 C100.922181,59.9091391 101.383637,60.6018543 102.305226,59.7939073 C102.305226,59.7939073 112.367337,57.0005298 114.714281,63.3846358 C114.714281,63.3846358 117.529292,66.9290066 110.217403,75.0760265 C110.217403,75.0760265 109.622403,79.1952318 110.957848,83.4389404 C110.957848,83.4389404 113.858803,85.6482119 113.916981,93.087947 C113.916981,93.087947 113.975159,94.1343046 114.497437,94.0760265 C114.497437,94.0760265 116.991148,93.4945695 116.761081,97.4482119 C116.761081,97.4482119 116.700259,106.905166 116.845703,108.244238 C116.845703,108.244238 118.513026,112.299868 117.86117,114.261457 C117.86117,114.261457 117.426159,115.672053 117.498881,116.760795 C117.498881,116.760795 117.715726,121.221722 116.918426,122.310464 C116.918426,122.310464 115.975681,125.82702 116.628859,126.117086 C116.628859,126.117086 118.544759,130.725033 116.121126,133.297219 C116.121126,133.297219 115.323826,134.707815 115.396548,135.070728 C115.396548,135.070728 116.296981,136.927682 114.960214,138.338278 C114.960214,138.338278 114.670648,141.201854 115.249781,141.419073 C115.249781,141.419073 116.224259,144.864106 114.816092,147.436291 C114.816092,147.436291 113.045637,152.581987 113.62477,154.180662 C113.62477,154.180662 113.656503,160.529007 110.652414,163.899868 C110.652414,163.899868 109.576126,167.779338 110.259714,170.207152 C110.259714,170.207152 112.466503,179.668079 105.00917,180.756821 C105.00917,180.756821 92.9862033,184.856159 89.0089589,188.881325 C89.0089589,188.881325 87.2689144,189.897219 86.1516367,189.461457 C86.1516367,189.461457 82.1743922,188.703841 80.2175033,193.123709 C80.2175033,193.123709 78.4457256,196.45351 76.7784033,194.388609 C76.7784033,194.388609 75.7325256,192.282649 73.5587922,193.518411 C73.5587922,193.518411 72.9069367,195.624371 68.3082478,195.695894 C68.3082478,195.695894 62.8805256,196.568742 62.0832256,195.477351 C62.0832256,195.477351 59.4414256,194.895894 57.7027033,195.187285 C57.7027033,195.187285 56.2945367,196.089272 54.9181033,194.171391 C54.9181033,194.171391 53.7889256,193.518411 52.5248811,194.317086 C52.5248811,194.317086 47.4925033,195.944901 45.7934478,193.518411 C45.7934478,193.518411 44.9644144,192.542252 43.95027,192.978013 C43.95027,192.978013 43.2256922,193.123709 42.7179589,191.599205 C42.7179589,191.599205 41.5993589,190.290596 40.2216033,190.436291 C40.2216033,190.436291 37.6115367,190.872053 35.6242367,188.444238 C35.6242367,188.444238 33.3037367,186.411126 31.6774033,186.483974 C31.6774033,186.483974 30.1965144,184.566093 28.7473589,184.929007 C28.7473589,184.929007 26.0341589,184.95947 26.0341589,183.184636 C26.0341589,183.184636 26.1491922,180.468079 22.8132256,181.26543 C22.8132256,181.26543 20.5244589,181.338278 19.76947,177.895894 C19.76947,177.895894 18.2872589,176.08 18.5054256,173.652185 C18.5054256,173.652185 18.4631144,172.490596 16.9108256,172.997881 C16.9108256,172.997881 15.4286144,173.940927 14.4871922,170.352848 C14.4871922,170.352848 13.4717256,168.723709 13.4717256,167.417748 C13.4717256,167.417748 13.22447,165.311788 11.3389811,166.327682 C11.3389811,166.327682 9.12161444,167.09457 8.51074778,163.972715 C8.51074778,163.972715 7.39347,159.94755 6.08711444,158.858808 C6.08711444,158.858808 6.08711444,157.260132 3.51935889,157.260132 C3.51935889,157.260132 0.557581111,157.115762 0.951603333,154.90649 C0.951603333,154.90649 -1.03569667,144.572715 0.734758889,137.830993 C0.734758889,137.830993 1.92475889,132.176689 3.15707,130.50649 L6.30528111,123.836291 C6.30528111,123.836291 7.89988111,121.876026 7.32074778,115.423046 C7.32074778,115.423046 7.35115889,105.672053 8.94708111,100.775364 C8.94708111,100.775364 10.2203811,92.2588079 11.1935367,90.5144371 C11.1935367,90.5144371 13.1094367,86.5223841 13.1821589,81.085298 C13.1821589,81.085298 9.71264778,79.093245 11.0480922,74.8508609 C11.0480922,74.8508609 11.8758033,69.8402649 19.4058589,69.0111258 C19.4058589,69.0111258 16.1545144,50.9170861 14.7053589,48.5634437 L8.04664778,40.2945695 C8.04664778,40.2945695 4.27567,36.9541722 5.87027,32.7541722 C5.87027,32.7541722 5.98530333,31.269404 11.7025922,27.0998675 L21.4367922,21.2283444 L29.6901033,11.9435762 C29.6901033,11.9435762 34.1737589,5.23099338 45.2857144,3.38463576 L60.1845144,1.07735099 Z" id="Fill-1" fill="#231F20" mask="url(#mask-2)"></path>
                </g>
                <path d="M19.6869633,27.6859603 C19.6869633,27.6859603 22.1978633,26.1972185 23.3429078,24.2647682 C23.3429078,24.2647682 34.3305744,9.9786755 40.5569189,9.31509934 L60.02003,5.53231788 C60.02003,5.53231788 69.6008522,6.6197351 78.4200744,12.4343046 L84.4242856,17.2237086 C84.4242856,17.2237086 79.3363744,27.6104636 35.9238522,33.1031788 C35.9238522,33.1031788 24.27243,35.5071523 19.2466633,30.585298 C19.2466633,30.585298 17.9429522,28.987947 19.4793744,27.7455629 L19.6869633,27.6859603 Z" id="Fill-4" fill="#FEFEFE"></path>
                <path d="M17.8675856,28.1418543 C17.8675856,28.1418543 16.3377744,31.3087417 20.1285856,32.7948344 C20.1285856,32.7948344 24.5950522,35.5431788 32.2203078,34.5974834 L48.6105744,32.2994702 C48.6105744,32.2994702 60.10333,30.0915232 65.66063,28.2769536 C65.66063,28.2769536 74.0527744,26.1021192 81.2284744,21.6743046 C81.2284744,21.6743046 85.0311856,19.2160265 86.5160411,16.7829139 L83.3546078,14.4849007 C83.3546078,14.4849007 89.7673856,12.2080795 94.2312078,13.2557616 L94.7270411,13.3007947 C94.7270411,13.3007947 89.9789411,17.9670199 88.5839967,18.7325828 C88.5839967,18.7325828 85.8853411,20.8623841 83.12983,22.0796026 C83.12983,22.0796026 82.9619078,24.0610596 85.21233,23.6107285 C85.21233,23.6107285 92.1632522,22.2266225 96.4036189,17.1100662 L89.9472078,28.5471523 C89.9472078,28.5471523 88.6858078,31.1272848 88.7320856,36.0054305 L87.8647078,57.438543 L79.1578744,66.3378808 C79.1578744,66.3378808 75.4503633,71.8425166 70.1971744,73.1418543 C70.1971744,73.1418543 67.4403411,73.5166887 65.9078856,75.5445033 C65.9078856,75.5445033 59.5281633,75.035894 58.3950189,76.9709934 C58.3950189,76.9709934 55.9065967,76.5047682 54.4733078,77.7723179 C54.4733078,77.7723179 49.1275633,76.9789404 47.6281633,78.9392053 C47.6281633,78.9392053 39.38543,80.5670199 35.7955967,77.9723179 C35.7955967,77.9723179 29.8826189,72.7670199 25.9609078,72.0743046 C25.9609078,72.0743046 22.8642633,71.4888742 21.0395967,71.7484768 L20.60723,71.8160265 L15.9860633,51.8372185 L12.5972078,47.4080795 C12.5972078,47.4080795 7.25014111,41.4782781 6.84950778,39.7842384 C6.84950778,39.7842384 6.12493,36.422649 7.51590778,35.9219868 C7.51590778,35.9219868 8.44939667,38.2981457 10.20663,38.8584106 C10.20663,38.8584106 11.9969189,39.2239735 13.2305522,38.5908609 C13.2305522,38.5908609 14.7868078,38.2650331 15.8538411,38.9577483 L12.6976967,35.7550993 C12.6976967,35.7550993 10.4062856,33.4345695 11.0383078,31.6676821 L18.3171411,27.1709934 L17.8675856,28.1418543 Z" id="Fill-6" fill="#005499"></path>
                <path d="M8.06595222,35.2792053 C8.06595222,35.2792053 8.91481889,33.4368212 10.0320967,32.7388079 C10.0320967,32.7388079 10.6297411,36.1030464 12.8180189,37.4474172 C12.8180189,37.4474172 10.9285633,38.8182781 9.33528556,36.949404 L8.06595222,35.2792053 Z" id="Fill-8" fill="#FEFEFE"></path>
                <path d="M87.5806944,21.0899338 C87.5806944,21.0899338 93.3112056,17.1680795 95.9292056,14.0263576 C95.9292056,14.0263576 96.71725,14.5084768 96.36025,15.5482119 C96.36025,15.5482119 92.3102833,20.1243709 88.0619833,21.2753642 L86.9129722,21.3866225 L87.5806944,21.0899338 Z" id="Fill-10" fill="#FEFEFE"></path>
                <path d="M14.4833578,84.1066225 C14.4833578,84.1066225 13.6424244,85.9609272 14.1818911,86.8655629 C14.1818911,86.8655629 14.9157244,87.4774834 15.3851133,85.9728477 C15.3851133,85.9728477 15.8545022,84.1066225 17.0577244,83.6245033 C17.0577244,83.6245033 18.1393022,82.4311258 16.8779022,81.4072848 C16.8779022,81.4072848 14.7240022,78.2152318 17.4173689,76.6006623 C17.4173689,76.6006623 18.9101578,75.8298013 20.29188,78.1066225 L33.0024022,93.4774834 C33.0024022,93.4774834 35.9972356,98.2231788 38.7514244,97.2006623 C38.7514244,97.2006623 41.8639356,95.694702 45.7010244,96.4774834 C45.7010244,96.4774834 48.7077578,94.3807947 51.8215911,96.6576159 C51.8215911,96.6576159 55.1284689,97.9225166 59.1943022,96.9596026 C59.1943022,96.9596026 60.7465911,95.9238411 63.7996022,97.9715232 C63.7996022,97.9715232 64.5202133,99.1264901 67.5758689,97.4403974 L88.4378911,84.1662252 C88.4378911,84.1662252 97.5308133,75.3490066 100.29558,71.4456954 L101.498802,69.6986755 C101.498802,69.6986755 102.088513,68.7357616 103.952847,68.915894 L106.837936,68.8562914 C106.837936,68.8562914 108.678469,68.7953642 107.307324,69.9397351 C107.307324,69.9397351 101.137836,73.0708609 100.776869,74.5649007 L102.941347,79.6019868 C102.941347,79.6019868 105.154747,86.1423841 105.634713,91.6708609 C105.634713,91.6708609 106.658113,103.619205 106.658113,107.160927 C106.658113,110.702649 106.717613,110.702649 106.717613,110.702649 C106.717613,110.702649 105.985102,122.159603 100.656547,130.868212 C100.656547,130.868212 95.69028,138.613907 87.59828,138.854967 C87.59828,138.854967 81.4168911,138.975497 78.7830244,136.518543 C78.7830244,136.518543 78.7341022,140.060265 80.6460356,144.203311 C80.6460356,144.203311 83.23098,150.694702 88.0795689,151.76755 C88.0795689,151.76755 91.6733689,152.490728 94.0070911,148.768874 C94.0070911,148.768874 97.8547578,143.661589 99.5855467,139.036424 C99.5855467,139.036424 100.11708,138.192715 100.717369,138.734437 C100.717369,138.734437 101.125936,140.070861 100.11708,141.323841 C100.11708,141.323841 96.1107467,151.396689 92.21548,152.901325 C92.21548,152.901325 88.3783911,155.429801 83.8206911,151.105298 C83.8206911,151.105298 81.2357467,148.64702 79.0236689,143.721192 C79.0236689,143.721192 76.3898022,147.323841 73.1543244,147.262914 C73.1543244,147.262914 78.4366022,154.319868 79.6504022,161.382119 C79.6504022,161.382119 80.3472133,168.718543 83.3936133,170.978146 C83.3936133,170.978146 85.4007467,172.902649 82.4389689,174.55298 C82.4389689,174.55298 79.4652911,175.421854 77.1236356,171.413907 C77.1236356,171.413907 74.7066133,165.143709 74.1737578,160.513245 C74.1737578,160.513245 72.06878,148.386093 69.5512689,147.431126 C69.5512689,147.431126 66.0685356,150.558278 62.2407022,148.64702 C62.2407022,148.64702 59.81178,148.224503 59.7245133,150.223179 C59.7245133,150.223179 58.0638022,152.915894 53.3685911,151.17947 C53.3685911,151.17947 46.2299133,148.745033 39.6108689,152.668212 C39.6108689,152.668212 34.3087578,154.742384 30.6528133,152.048344 C30.6528133,152.048344 28.2238911,150.123841 27.2573467,144.811258 C27.2573467,144.811258 27.5918689,143.77947 25.68258,142.029801 C25.68258,142.029801 24.9884133,140.812583 25.07568,139.064238 C25.07568,139.064238 25.8690133,135.227152 24.2955689,134.96755 C24.2955689,134.96755 21.9525911,133.390066 20.1199911,136.878808 C20.1199911,136.878808 19.7603467,139.509272 17.7637911,138.107947 L17.5919022,135.747682 C17.5919022,135.747682 13.8486911,133.216556 11.5824022,136.617881 C11.5824022,136.617881 11.9288244,138.542384 10.5404911,138.542384 C10.5404911,138.542384 9.15215778,138.529139 9.49858,133.477483 C9.49858,133.477483 9.83310222,131.216556 7.49144667,130.958278 C7.49144667,130.958278 4.87609111,131.913245 4.09730222,136.096026 C4.09730222,136.096026 1.58111333,141.07351 1.58111333,145.343709 C1.58111333,145.343709 0.875046667,157.460265 3.22992444,158.502649 C3.22992444,158.502649 6.10443556,158.950331 6.45085778,160.164901 C6.45085778,160.164901 7.83786889,156.070861 10.5404911,157.980795 C10.5404911,157.980795 11.2465578,159.198013 9.75905778,159.110596 C9.75905778,159.110596 8.71846889,160.252318 9.49858,161.294702 C9.49858,161.294702 10.5404911,162.003311 9.84632444,164.262914 C9.84632444,164.262914 9.74715778,165.652318 11.1487133,165.217881 C11.1487133,165.217881 14.6301244,164.511921 14.8033356,166.174172 L15.4975022,170.792715 C15.4975022,170.792715 15.6693911,174.975497 18.45928,174.019205 L18.9789133,172.717219 C18.9789133,172.717219 20.6409467,171.574172 20.7268911,174.453642 C20.7268911,174.453642 19.3266578,180.375497 22.7221244,181.77947 C22.7221244,181.77947 24.5441467,183.366225 25.8571133,178.388742 C25.8571133,178.388742 27.5178244,176.55298 27.3446133,179.257616 C27.3446133,179.257616 25.7698467,184.670861 29.4257911,186.060265 C29.4257911,186.060265 35.25018,189.723841 36.8236244,189.723841 C36.8236244,189.723841 38.4724356,191.982119 40.4795689,191.635099 C40.4795689,191.635099 44.5824244,191.298675 45.6216911,193.298675 C45.6216911,193.298675 47.4556133,197.307947 53.0208467,195.035099 C53.0208467,195.035099 55.02798,194.327815 56.3290467,196.252318 C56.3290467,196.252318 58.4974911,197.208609 61.9789022,196.164901 C61.9789022,196.164901 64.1605689,196.178146 65.3756911,197.22053 C65.3756911,197.22053 71.3851911,198.090728 72.68758,193.992715 C72.68758,193.992715 72.5249467,193.209934 71.4724578,194.166225 C71.4724578,194.166225 70.7901911,194.787417 70.4318689,193.036424 C70.4318689,193.036424 70.6910244,191.460265 74.7806578,191.199338 C74.7806578,191.199338 76.3422022,190.75298 76.0817244,191.894702 C76.0817244,191.894702 74.7806578,195.730464 78.3506578,194.688079 C78.3506578,194.688079 80.9527911,193.28543 80.9527911,191.635099 C80.9527911,191.635099 80.8774244,190.170199 82.26708,189.549007 C82.26708,189.549007 87.4819244,186.408609 86.9636133,180.215232 L85.8344356,169.575497 C85.8344356,169.575497 84.8811133,167.664238 86.4426578,167.578146 C86.4426578,167.578146 87.65778,168.521192 87.65778,170.009934 C87.65778,170.009934 88.0161022,172.629801 89.6635911,171.934437 C89.6635911,171.934437 91.6588244,171.848344 91.8320356,169.053642 C91.8320356,169.053642 91.58478,168.198013 93.0590578,167.664238 C93.0590578,167.664238 93.7532244,166.608609 93.66728,165.566225 C93.66728,165.566225 93.6540578,164.697351 95.4893022,164.958278 C95.4893022,164.958278 99.2298689,163.915894 99.4044022,161.903974 C99.4044022,161.903974 99.3290356,160.068212 100.630102,159.371523 C100.630102,159.371523 103.507258,159.470861 104.287369,157.807285 C104.287369,157.807285 105.501169,155.362252 105.501169,150.484106 C105.501169,150.484106 104.795102,146.833775 106.629024,145.518543 C106.629024,145.518543 109.416269,143.072185 109.157113,140.019205 C109.157113,140.019205 108.104624,136.182119 110.111758,135.313245 C110.111758,135.313245 111.771147,133.228477 111.771147,131.305298 L112.813058,123.286755 C112.813058,123.286755 114.63508,103.311921 113.419958,99.910596 C113.419958,99.910596 113.692336,99.3900662 112.032947,99.302649 C112.032947,99.302649 111.337458,99.0311258 111.94568,96.684106 C111.94568,96.684106 112.638524,90.7503311 109.678069,89.1860927 C109.678069,89.1860927 108.722102,86.3927152 108.722102,81.9490066 L108.288413,77.5927152 C108.288413,77.5927152 107.75688,76.2761589 110.024491,75.1463576 C110.024491,75.1463576 114.114124,72.0178808 113.940913,68.7913907 C113.940913,68.7913907 113.17138,63.5516556 107.247824,63.5516556 C107.247824,63.5516556 102.725824,64.0854305 101.063791,65.7370861 C101.063791,65.7370861 99.4044022,66.6801325 99.4044022,64.2470199 C99.4044022,64.2470199 100.359047,62.4218543 99.05798,62.4218543 C99.05798,62.4218543 96.9622578,61.6403974 96.0102578,62.5953642 C96.0102578,62.5953642 95.0556133,63.7384106 93.8404911,61.118543 C93.8404911,61.118543 93.3327578,57.7913907 88.9694244,59.4562914 L86.7904022,61.2059603 C86.7904022,61.2059603 76.6899467,72.1913907 73.4676911,73.5821192 C73.4676911,73.5821192 67.1342467,75.5927152 66.9491356,76.8099338 C66.9491356,76.8099338 65.3003244,77.8523179 63.72688,77.4178808 C63.72688,77.4178808 59.8858244,77.0589404 58.4974911,78.286755 C58.4974911,78.286755 55.7102467,78.2112583 54.7556022,79.4284768 C54.7556022,79.4284768 51.4593022,78.6456954 48.75668,80.0377483 C48.75668,80.0377483 41.52148,82.6562914 36.13078,80.0377483 C36.13078,80.0377483 28.0255578,72.105298 22.2011689,73.2350993 C22.2011689,73.2350993 12.7208356,72.105298 12.8953689,80.3847682 C12.8953689,80.3847682 12.19988,81.9609272 13.7627467,83.3516556 L14.4833578,84.1066225 Z" id="Fill-12" fill="#FEFEFE"></path>
                <path d="M45.27593,87.8822517 C45.27593,87.8822517 46.6629411,90.5882119 49.6247189,88.5776159 L51.7072189,86.5670199 C51.7072189,86.5670199 53.5411411,85.5113907 53.71303,86.5670199 C53.71303,86.5670199 54.3966189,88.3908609 51.5326856,89.8809272 C51.5326856,89.8809272 49.9711411,93.0213245 46.7502078,92.3259603 C46.7502078,92.3259603 44.3093856,92.0663576 44.4825967,88.838543 C44.4825967,88.838543 44.20493,87.3842384 45.1992411,87.7299338 L45.27593,87.8822517 Z" id="Fill-14" fill="#231F20"></path>
                <path d="M69.3464567,82.244106 C69.3464567,82.244106 65.7883567,85.5858278 65.7883567,86.8255629 C65.7883567,86.8255629 65.6918344,88.6864901 68.6298122,87.675894 C68.6298122,87.675894 75.0280456,86.0361589 75.4207456,84.8295364 C75.4207456,84.8295364 75.8108011,83.0666225 72.9045567,84.470596 L70.6898344,85.1222517 C70.6898344,85.1222517 69.2089456,85.3249007 70.0961567,83.9805298 C70.0961567,83.9805298 71.6405122,82.9619868 70.5258789,81.7209272 C70.5258789,81.7209272 70.2270567,81.5262252 69.6730456,81.8189404 L69.3464567,82.244106 Z" id="Fill-16" fill="#231F20"></path>
                <path d="M83.6198456,79.6215894 L98.69979,67.4348344 C98.69979,67.4348344 99.3278456,66.0043709 97.1580789,66.6904636 L83.1623567,78.0202649 C83.1623567,78.0202649 82.0768122,78.5116556 82.5382678,79.6030464 C82.5382678,79.6030464 82.8238678,80.0480795 83.53919,79.646755 L83.6198456,79.6215894 Z" id="Fill-18" fill="#231F20"></path>
                <path d="M15.7041656,115.726623 C15.7041656,115.726623 10.5633656,93.1822517 18.21771,84.8286093 C18.21771,84.8286093 18.5773544,84.522649 18.7822989,85.0325828 L19.5465433,85.9716556 C19.5465433,85.9716556 20.2697989,86.6749669 19.3627544,87.2060927 C19.3627544,87.2060927 17.0924989,88.6431788 17.6213878,89.8365563 C17.6213878,89.8365563 17.8765767,91.5411921 20.2790544,92.1531126 C20.2790544,92.1531126 22.5387322,92.735894 21.8868767,94.9570861 C21.8868767,94.9570861 21.3368322,96.7531126 18.1304433,96.9160265 C18.1304433,96.9160265 16.0743878,97.0590728 16.3388322,99.9862252 C16.3388322,99.9862252 16.6178211,106.685563 20.2737656,110.863046 L15.7041656,115.726623 Z" id="Fill-20" fill="#FEFEFE"></path>
                <path d="M14.5046456,116.641722 C14.5046456,116.641722 11.9355678,104.511921 12.16299,98.1596026 C12.16299,98.1596026 7.64892333,107.888079 9.25013444,121.963576 C9.25013444,121.963576 11.2493344,121.734437 11.2493344,119.274834 C11.2493344,119.274834 10.8487011,115.097351 11.7623567,114.811258 C11.7623567,114.811258 12.6773344,114.35298 12.8492233,115.784768 C12.8492233,115.784768 12.7910456,117.443046 13.9916233,116.986093 L14.5046456,116.641722 Z" id="Fill-22" fill="#FEFEFE"></path>
                <path d="M71.71654,107.339205 C71.71654,107.339205 69.3854622,102.259735 74.1163733,100.912715 C74.1163733,100.912715 79.4938511,98.238543 84.2062511,92.9603974 L96.3191289,79.4610596 L98.6488844,77.1458278 C98.6488844,77.1458278 99.3470178,76.1590728 99.9750733,76.9670199 L100.781629,80.3590728 C100.781629,80.3590728 87.5752733,95.9948344 89.2756511,106.441192 C89.2756511,106.441192 89.7252067,107.339205 90.9786733,107.698146 C90.9786733,107.698146 95.6209956,108.414702 94.3662067,111.180265 C94.3662067,111.180265 94.0078844,112.510066 89.7252067,112.688874 C89.7252067,112.688874 86.4275844,113.316689 87.1442289,120.192185 C87.1442289,120.192185 85.4425289,130.189536 90.0835289,135.377616 C90.0835289,135.377616 91.0513956,136.904768 89.1870622,137.084901 C89.1870622,137.084901 83.0413733,139.148477 78.8472844,134.229272 C78.8472844,134.229272 77.0741844,115.004106 72.7901844,108.667682 L71.71654,107.339205 Z" id="Fill-24" fill="#FEFEFE"></path>
                <path d="M21.4611211,112.376556 L30.5870989,102.799073 C30.5870989,102.799073 33.4933433,99.1368212 36.7142767,99.1368212 C36.7142767,99.1368212 38.8681767,98.5328477 39.2542656,100.155364 C39.2542656,100.155364 39.4697878,101.342119 38.3339989,102.555364 L37.4401767,103.671921 C37.4401767,103.671921 35.1910767,104.277219 36.7142767,106.410993 C36.7142767,106.410993 38.4794433,107.50106 39.1088211,105.538146 C39.1088211,105.538146 39.4763989,103.111656 40.4667433,102.021589 C40.4667433,102.021589 41.1450433,101.661325 41.1450433,100.205695 C41.1450433,100.205695 40.2935322,98.0215894 41.8444989,98.0215894 C41.8444989,98.0215894 47.4877433,97.3421192 51.4808544,98.4096689 C51.4808544,98.4096689 53.7048322,98.7487417 55.8851767,98.652053 C55.8851767,98.652053 59.0849544,98.7752318 59.0849544,101.078543 C59.0849544,101.078543 59.1325544,102.555364 58.6962211,102.848079 C58.6962211,102.848079 57.0963322,103.547417 58.0668433,105.683841 C58.0668433,105.683841 58.4053322,107.285166 57.2430989,107.771258 C57.2430989,107.771258 56.5647989,109.075894 57.9689989,108.666623 C57.9689989,108.666623 59.4921989,107.890464 59.78441,105.732848 C59.78441,105.732848 60.7535989,102.776556 60.6068322,100.689139 C60.6068322,100.689139 60.3873433,99.4282119 59.4921989,98.6997351 C59.4921989,98.6997351 62.9550989,98.2149669 66.9495322,102.167285 C66.9495322,102.167285 74.8802211,113.894437 77.3937656,138.956689 C77.3937656,138.956689 79.12191,145.604371 72.5848433,145.863974 C72.5848433,145.863974 70.25641,146.270596 68.5229767,143.087815 C68.5229767,143.087815 58.4304544,127.857351 45.06411,133.00702 C45.06411,133.00702 39.2383989,138.271921 35.2386767,134.952715 L25.5295989,124.881192 C25.5295989,124.881192 24.9967433,124.210993 23.9521878,124.478543 C23.9521878,124.478543 23.1257989,125.196424 23.9521878,126.351391 L31.3645656,140.004371 C31.3645656,140.004371 32.1631878,142.467947 35.2042989,141.483841 C35.2042989,141.483841 37.4176989,140.12755 40.08991,140.31298 C40.08991,140.31298 41.2230544,140.682517 42.57701,139.32755 C42.57701,139.32755 48.5084989,133.817616 53.9758878,134.926225 C53.9758878,134.926225 62.1472211,135.814967 68.4753767,145.911656 C68.4753767,145.911656 68.4753767,149.573907 60.5473322,147.205695 C60.5473322,147.205695 55.2319989,140.777881 49.9483989,145.20702 L39.2291433,151.298411 C39.2291433,151.298411 34.1597433,153.728874 30.8726989,150.005695 C30.8726989,150.005695 29.1220767,147.452053 28.6923544,144.221589 C28.6923544,144.221589 28.2282544,142.285166 26.9694989,141.483841 C26.9694989,141.483841 26.1444322,140.710331 26.3282211,138.403046 C26.3282211,138.403046 26.9430544,135.267947 25.7133878,134.221589 C25.7133878,134.221589 23.0689433,131.236159 20.0278322,133.91298 L19.1392989,135.295762 C19.1392989,135.295762 17.20621,130.709007 11.6436211,134.556689 C11.6436211,134.556689 9.92208778,133.39245 14.0090767,130.436159 L18.4636433,126.773907 C18.4636433,126.773907 19.22921,125.788477 20.70481,125.540795 C20.70481,125.540795 21.5655767,125.568609 20.6426656,124.246755 C20.6426656,124.246755 19.28871,122.926225 16.3097433,125.911656 L10.4139544,131.324901 C10.4139544,131.324901 9.09437667,128.649404 7.18905444,129.388477 C7.18905444,129.388477 6.51207667,126.800397 10.2909878,123.816291 L21.4611211,112.376556 Z" id="Fill-26" fill="#F7971D"></path>
                <path d="M15.4988244,147.818013 C15.0651356,145.844503 13.4797911,144.708079 11.50968,144.708079 L10.14118,144.708079 C9.30553556,144.708079 8.92076889,144.256424 8.13801333,143.97298 C6.96916889,143.538543 5.73289111,143.069669 5.73289111,141.815364 L5.73289111,140.461722 C5.73289111,138.738543 7.06965778,137.953113 7.06965778,136.229934 L7.06965778,134.975629 C6.78538,134.725298 6.55134667,134.574305 6.16658,134.574305 C5.36663556,134.574305 5.46712444,135.661722 5.33358,136.447152 C5.13392444,137.618013 5.21590222,138.321325 4.86551333,139.44053 C4.31546889,141.196821 3.28016889,142.065695 3.28016889,143.90543 C3.28016889,144.37298 3.61336889,144.624636 3.61336889,145.09351 L3.61336889,146.61404 C4.39744667,147.300132 5.11541333,147.550464 6.16658,147.550464 C8.00446889,147.550464 8.98820222,146.747815 10.8247689,146.747815 C12.6943911,146.747815 13.58028,148.019338 15.44858,148.019338 C15.44858,148.019338 15.5358467,148.031258 15.5001467,147.847152 L15.4988244,147.818013 Z" id="Fill-28" fill="#231F20"></path>
                <path d="M80.05011,183.587947 L82.2489656,183.587947 L82.2489656,182.243576 C82.2489656,181.185298 80.9346767,180.840927 79.8795433,180.840927 L76.5078767,180.840927 C75.6523989,180.840927 75.2808544,180.154834 74.6514767,179.582649 C73.05291,178.095232 72.0823989,177.18 71.1118878,175.23298 C69.76851,172.544238 68.4542211,171.372053 66.4272544,169.169404 C64.9701656,167.595894 63.9705656,166.078013 61.8298878,166.078013 L59.0307433,166.078013 C58.2598878,166.078013 57.63051,166.76543 57.63051,167.537616 L57.63051,172.745563 C57.63051,173.488609 56.7446211,173.745563 56.0028544,173.745563 L46.2355989,173.745563 C44.35011,173.745563 44.49291,176.292583 42.8930211,177.293907 C41.63691,178.066093 40.5513656,177.636954 39.06651,177.636954 C36.8094767,177.636954 35.5533656,177.407815 33.2963322,177.064768 C33.2698878,177.236954 33.06891,177.323046 33.06891,177.521722 C33.06891,178.781325 34.4678211,178.952185 35.4687433,179.724371 L55.4607433,179.724371 L55.4607433,180.640927 C55.4607433,181.356159 54.5457656,181.528344 53.8317656,181.528344 L51.2626878,181.528344 C49.7487433,181.528344 49.20531,182.815762 47.92011,183.587947 C47.1492544,184.046225 46.34931,183.701854 45.63531,184.275364 C45.9486767,184.530993 46.1483322,184.846225 46.5780544,184.846225 L50.4058878,184.846225 C52.0903989,184.846225 52.9749656,185.648874 54.6594767,185.648874 C56.6018211,185.648874 57.5445656,184.389272 59.48691,184.389272 L64.1133656,184.389272 C67.1412544,184.389272 67.7402211,180.383974 70.76811,180.383974 C74.5946211,180.383974 76.2235989,183.587947 80.05011,183.587947" id="Fill-30" fill="#231F20"></path>
                <path d="M39.5332544,2.3586755 C39.5332544,2.3586755 36.3612433,3.47788079 36.6045322,6.77721854 C36.6045322,6.77721854 36.0888656,9.89377483 38.4463878,10.8010596 C38.4463878,10.8010596 39.7752211,10.4394702 39.7752211,10.9838411 C39.7752211,10.9838411 39.4433433,12.0129801 40.9850544,12.0129801 L42.5849433,11.8315232 C42.5849433,11.8315232 43.5514878,11.5282119 44.0354211,12.3162914 C44.0354211,12.3162914 45.6961322,13.4050331 49.2912544,12.8606623 C49.2912544,12.8606623 51.3750767,12.7388079 52.2821211,11.8315232 C52.2821211,11.8315232 53.0066989,10.5586755 54.3976767,10.741457 C54.3976767,10.741457 56.3611767,11.1335099 57.57101,9.77192053 C57.57101,9.77192053 59.20131,8.59311258 59.20131,7.56397351 C59.20131,7.56397351 61.6778322,6.32423841 60.4997322,4.56794702 C60.4997322,4.56794702 60.8342544,2.26728477 58.7795211,2.63019868 C58.7795211,2.63019868 57.6318322,2.41960265 57.6318322,2.11629139 C57.6318322,2.11629139 57.4810989,0.844768212 55.7278322,1.14807947 C55.7278322,1.14807947 54.6991433,1.39046358 54.1570322,1.08715232 C54.1570322,1.08715232 53.70351,-0.426754967 51.4676322,0.118940397 C51.4676322,0.118940397 49.0201989,-0.24397351 48.1131544,0.663311258 C48.1131544,0.663311258 46.42071,1.87390728 45.8772767,1.26860927 C45.8772767,1.26860927 45.3655767,0.239470199 43.9745989,1.08715232 C43.9745989,1.08715232 43.1296989,1.45006623 42.7660878,1.14807947 C42.7660878,1.14807947 41.5271656,0.634172185 41.1648767,1.57192053 C41.1648767,1.57192053 40.9850544,2.29907285 40.5011211,2.29907285 C40.5011211,2.29907285 39.91141,2.15735099 39.6244878,2.32556291 L39.5332544,2.3586755 Z" id="Fill-32" fill="#231F20"></path>
                <path d="M44.4392278,44.4769536 L44.4392278,52.2239735 C44.7843278,52.2411921 45.0448056,52.2504636 45.2206611,52.2504636 C46.4926389,52.2504636 47.4724056,51.9299338 48.1599611,51.2928477 C48.8475167,50.6531126 49.1912944,49.6637086 49.1912944,48.3233113 C49.1912944,46.9921854 48.8475167,46.0186755 48.1599611,45.401457 C47.4724056,44.7842384 46.4463611,44.4769536 45.0818278,44.4769536 L44.4392278,44.4769536 Z M44.4392278,53.2504636 L44.4392278,58.217351 C44.4392278,59.1921854 44.5093056,59.8054305 44.6507833,60.0584106 C44.7909389,60.3113907 45.0408389,60.5127152 45.4004833,60.6637086 C45.7601278,60.8133775 46.41595,60.8901987 47.3745611,60.8901987 L47.3745611,61.3484768 L36.6248944,61.3484768 L36.6248944,60.8901987 C37.6033389,60.8901987 38.2657722,60.812053 38.6148389,60.6570861 C38.9625833,60.5021192 39.2071944,60.2994702 39.3486722,60.0517881 C39.4875056,59.8027815 39.5589056,59.1921854 39.5589056,58.217351 L39.5589056,46.5815894 C39.5589056,45.606755 39.4875056,44.9935099 39.3486722,44.7418543 C39.2071944,44.4875497 38.9599389,44.2862252 38.6069056,44.1352318 C38.2538722,43.9842384 37.5914389,43.9087417 36.6248944,43.9087417 L36.6248944,43.4517881 L45.8434278,43.4517881 C48.87925,43.4517881 51.05695,43.9074172 52.3791722,44.8239735 C53.69875,45.7392053 54.3598611,46.8849007 54.3598611,48.2570861 C54.3598611,49.42 53.9327833,50.414702 53.07995,51.2425166 C52.2271167,52.0703311 51.0516611,52.633245 49.5549056,52.9325828 C48.54605,53.1431788 46.8417056,53.2504636 44.4392278,53.2504636 L44.4392278,53.2504636 Z" id="Fill-34" fill="#231F20"></path>
                <path d="M46.4221644,46.650596 L46.4221644,50.0757616 C46.5781867,50.0108609 46.7090867,49.9313907 46.8135422,49.834702 C47.1559978,49.5154967 47.2088867,48.7512583 47.2088867,48.3234437 C47.2088867,47.6082119 47.0766644,47.0956291 46.8373422,46.8810596 C46.7355311,46.7896689 46.5953756,46.7115232 46.4221644,46.650596 L46.4221644,46.650596 Z M50.9071422,46.253245 C51.0856422,46.8731126 51.1755533,47.5645033 51.1755533,48.3234437 C51.1755533,49.0770861 51.0882867,49.7645033 50.9137533,50.3843709 C51.2178644,50.2188079 51.4796644,50.029404 51.7004756,49.8161589 C52.16722,49.3618543 52.3761311,48.8810596 52.3761311,48.2572185 C52.3761311,47.7830464 52.2491978,47.1499338 51.2495978,46.4572185 C51.1530756,46.3896689 51.0393644,46.3221192 50.9071422,46.253245 L50.9071422,46.253245 Z M41.5034978,59.3618543 L42.4951644,59.3618543 C42.46872,59.032053 42.4554978,58.6545695 42.4554978,58.2161589 L42.4554978,53.2492715 C42.4554978,53.0731126 42.4792978,52.9009272 42.5229311,52.7366887 C42.4792978,52.5737748 42.4554978,52.4015894 42.4554978,52.224106 L42.4554978,45.4386755 L41.5034978,45.4386755 C41.5299422,45.7684768 41.5418422,46.1446358 41.5418422,46.5817219 L41.5418422,58.2161589 C41.5418422,58.6545695 41.5299422,59.032053 41.5034978,59.3618543 L41.5034978,59.3618543 Z M47.3741644,63.3353642 L36.6244978,63.3353642 C35.5296978,63.3353642 34.6411644,62.445298 34.6411644,61.3486093 L34.6411644,60.8903311 C34.6411644,59.7923179 35.5296978,58.9035762 36.6244978,58.9035762 C37.0674422,58.9035762 37.3662644,58.8850331 37.5606311,58.8651656 C37.5685644,58.7035762 37.5751756,58.4916556 37.5751756,58.2161589 L37.5751756,46.5817219 C37.5751756,46.3075497 37.5685644,46.0956291 37.5606311,45.9327152 C37.3689089,45.9141722 37.0687644,45.8956291 36.6244978,45.8956291 C35.5296978,45.8956291 34.6411644,45.0068874 34.6411644,43.9088742 L34.6411644,43.4519205 C34.6411644,42.3539073 35.5296978,41.4651656 36.6244978,41.4651656 L45.8430311,41.4651656 C49.3257644,41.4651656 51.8326978,42.029404 53.5079533,43.1896689 C55.8509311,44.8161589 56.3427978,46.8439735 56.3427978,48.2572185 C56.3427978,49.9486093 55.6922644,51.4744371 54.4599533,52.6691391 C53.3320978,53.7631788 51.8128644,54.5075497 49.9432422,54.8810596 C49.1247867,55.0519205 47.9625533,55.1605298 46.4221644,55.2082119 L46.4221644,58.2161589 C46.4221644,58.4916556 46.4287756,58.7035762 46.4380311,58.8651656 C46.6310756,58.8837086 46.93122,58.9035762 47.3741644,58.9035762 C48.4702867,58.9035762 49.3574978,59.7923179 49.3574978,60.8903311 L49.3574978,61.3486093 C49.3574978,62.445298 48.4702867,63.3353642 47.3741644,63.3353642 L47.3741644,63.3353642 Z" id="Fill-36" fill="#231F20"></path>
                <path d="M58.1502756,49.7859603 L58.1502756,57.5343046 C58.4953756,57.5501987 58.7558533,57.5594702 58.9330311,57.5594702 C60.2050089,57.5594702 61.1847756,57.2402649 61.8710089,56.6018543 C62.5598867,55.9634437 62.9023422,54.9727152 62.9023422,53.6336424 C62.9023422,52.3025166 62.5598867,51.3290066 61.8710089,50.7117881 C61.1847756,50.0945695 60.1574089,49.7859603 58.7928756,49.7859603 L58.1502756,49.7859603 Z M58.1502756,58.5594702 L58.1502756,63.5276821 C58.1502756,64.5025166 58.2216756,65.1157616 58.3618311,65.3687417 C58.5019867,65.6203974 58.7532089,65.8217219 59.1115311,65.9740397 C59.4698533,66.1237086 60.12832,66.1992053 61.0856089,66.1992053 L61.0856089,66.6588079 L50.3359422,66.6588079 L50.3359422,66.1992053 C51.3143867,66.1992053 51.97682,66.1210596 52.3272089,65.9660927 C52.6736311,65.8111258 52.9195644,65.6098013 53.0610422,65.3621192 C53.1998756,65.1131126 53.2712756,64.5025166 53.2712756,63.5276821 L53.2712756,51.8919205 C53.2712756,50.9170861 53.1998756,50.3025166 53.0610422,50.0508609 C52.9195644,49.7978808 52.6709867,49.5952318 52.3179533,49.4455629 C51.96492,49.2945695 51.3024867,49.2190728 50.3359422,49.2190728 L50.3359422,48.7607947 L59.5544756,48.7607947 C62.5902978,48.7607947 64.76932,49.2177483 66.0915422,50.1343046 C67.4097978,51.0495364 68.0709089,52.1939073 68.0709089,53.5674172 C68.0709089,54.7290066 67.6438311,55.7237086 66.79232,56.5528477 C65.9394867,57.3793377 64.7640311,57.9435762 63.2672756,58.2429139 C62.25842,58.4535099 60.5540756,58.5594702 58.1502756,58.5594702 L58.1502756,58.5594702 Z" id="Fill-38" fill="#231F20"></path>
                <path d="M60.1338733,51.9596026 L60.1338733,55.3847682 C60.2885733,55.3211921 60.4194733,55.2417219 60.5226067,55.1450331 C60.8677067,54.8245033 60.9192733,54.0602649 60.9192733,53.6337748 C60.9192733,52.918543 60.7870511,52.4059603 60.5490511,52.1913907 C60.4459178,52.1 60.3070844,52.0218543 60.1338733,51.9596026 L60.1338733,51.9596026 Z M64.6188511,51.5622517 C64.7960289,52.1834437 64.88594,52.8735099 64.88594,53.6337748 C64.88594,54.3874172 64.7986733,55.0748344 64.6254622,55.694702 C64.9295733,55.5291391 65.1926956,55.3384106 65.4135067,55.1251656 C65.8789289,54.6721854 66.08784,54.1913907 66.08784,53.5675497 C66.08784,53.0933775 65.9595844,52.4602649 64.9613067,51.7675497 C64.8647844,51.7 64.7510733,51.6311258 64.6188511,51.5622517 L64.6188511,51.5622517 Z M59.8548844,64.1317881 L59.8562067,64.1317881 L59.8548844,64.1317881 Z M55.2165289,64.6721854 L56.2055511,64.6721854 C56.1791067,64.3410596 56.1672067,63.9649007 56.1672067,63.5264901 L56.1672067,58.5582781 C56.1672067,58.3821192 56.1896844,58.2099338 56.2333178,58.0456954 C56.1896844,57.8827815 56.1672067,57.710596 56.1672067,57.5344371 L56.1672067,50.7476821 L55.2165289,50.7476821 C55.2429733,51.0774834 55.2548733,51.4549669 55.2548733,51.892053 L55.2548733,63.5264901 C55.2548733,63.9649007 55.2429733,64.3423841 55.2165289,64.6721854 L55.2165289,64.6721854 Z M61.0858733,68.6456954 L50.3362067,68.6456954 C49.2400844,68.6456954 48.3528733,67.7556291 48.3528733,66.6589404 L48.3528733,66.1993377 C48.3528733,65.1013245 49.2400844,64.2125828 50.3362067,64.2125828 C50.7791511,64.2125828 51.0792956,64.1940397 51.2736622,64.1754967 C51.2815956,64.0125828 51.2882067,63.8006623 51.2882067,63.5264901 L51.2882067,51.892053 C51.2882067,51.6178808 51.2815956,51.4046358 51.2736622,51.2430464 C51.0806178,51.2231788 50.7804733,51.2059603 50.3362067,51.2059603 C49.2400844,51.2059603 48.3528733,50.315894 48.3528733,49.2192053 L48.3528733,48.7609272 C48.3528733,47.6629139 49.2400844,46.7741722 50.3362067,46.7741722 L59.55474,46.7741722 C63.0361511,46.7741722 65.5444067,47.3384106 67.2196622,48.5 C69.56264,50.1264901 70.0545067,52.1529801 70.0545067,53.5675497 C70.0545067,55.2562914 69.4039733,56.7821192 68.1743067,57.9781457 C67.0438067,59.0735099 65.5245733,59.8165563 63.6562733,60.1913907 C62.8378178,60.3622517 61.6742622,60.4708609 60.1338733,60.5172185 L60.1338733,63.5264901 C60.1338733,63.8006623 60.1404844,64.0125828 60.1484178,64.1741722 C60.3414622,64.1940397 60.6416067,64.2125828 61.0858733,64.2125828 C62.1819956,64.2125828 63.0692067,65.1013245 63.0692067,66.1993377 L63.0692067,66.6589404 C63.0692067,67.7556291 62.1819956,68.6456954 61.0858733,68.6456954 L61.0858733,68.6456954 Z" id="Fill-40" fill="#231F20"></path>
                <path d="M58.1502756,49.7859603 L58.1502756,57.5343046 C58.4953756,57.5501987 58.7558533,57.5594702 58.9330311,57.5594702 C60.2050089,57.5594702 61.1847756,57.2402649 61.8710089,56.6018543 C62.5598867,55.9634437 62.9023422,54.9727152 62.9023422,53.6336424 C62.9023422,52.3025166 62.5598867,51.3290066 61.8710089,50.7117881 C61.1847756,50.0945695 60.1574089,49.7859603 58.7928756,49.7859603 L58.1502756,49.7859603 Z M58.1502756,58.5594702 L58.1502756,63.5276821 C58.1502756,64.5025166 58.2216756,65.1157616 58.3618311,65.3687417 C58.5019867,65.6203974 58.7532089,65.8217219 59.1115311,65.9740397 C59.4698533,66.1237086 60.12832,66.1992053 61.0856089,66.1992053 L61.0856089,66.6588079 L50.3359422,66.6588079 L50.3359422,66.1992053 C51.3143867,66.1992053 51.97682,66.1210596 52.3272089,65.9660927 C52.6736311,65.8111258 52.9195644,65.6098013 53.0610422,65.3621192 C53.1998756,65.1131126 53.2712756,64.5025166 53.2712756,63.5276821 L53.2712756,51.8919205 C53.2712756,50.9170861 53.1998756,50.3025166 53.0610422,50.0508609 C52.9195644,49.7978808 52.6709867,49.5952318 52.3179533,49.4455629 C51.96492,49.2945695 51.3024867,49.2190728 50.3359422,49.2190728 L50.3359422,48.7607947 L59.5544756,48.7607947 C62.5902978,48.7607947 64.76932,49.2177483 66.0915422,50.1343046 C67.4097978,51.0495364 68.0709089,52.1939073 68.0709089,53.5674172 C68.0709089,54.7290066 67.6438311,55.7237086 66.79232,56.5528477 C65.9394867,57.3793377 64.7640311,57.9435762 63.2672756,58.2429139 C62.25842,58.4535099 60.5540756,58.5594702 58.1502756,58.5594702 L58.1502756,58.5594702 Z" id="Fill-42" fill="#F7971D"></path>
                <path d="M44.4392278,44.4769536 L44.4392278,52.2239735 C44.7843278,52.2411921 45.0448056,52.2504636 45.2206611,52.2504636 C46.4926389,52.2504636 47.4724056,51.9299338 48.1599611,51.2928477 C48.8475167,50.6531126 49.1912944,49.6637086 49.1912944,48.3233113 C49.1912944,46.9921854 48.8475167,46.0186755 48.1599611,45.401457 C47.4724056,44.7842384 46.4463611,44.4769536 45.0818278,44.4769536 L44.4392278,44.4769536 Z M44.4392278,53.2504636 L44.4392278,58.217351 C44.4392278,59.1921854 44.5093056,59.8054305 44.6507833,60.0584106 C44.7909389,60.3113907 45.0408389,60.5127152 45.4004833,60.6637086 C45.7601278,60.8133775 46.41595,60.8901987 47.3745611,60.8901987 L47.3745611,61.3484768 L36.6248944,61.3484768 L36.6248944,60.8901987 C37.6033389,60.8901987 38.2657722,60.812053 38.6148389,60.6570861 C38.9625833,60.5021192 39.2071944,60.2994702 39.3486722,60.0517881 C39.4875056,59.8027815 39.5589056,59.1921854 39.5589056,58.217351 L39.5589056,46.5815894 C39.5589056,45.606755 39.4875056,44.9935099 39.3486722,44.7418543 C39.2071944,44.4875497 38.9599389,44.2862252 38.6069056,44.1352318 C38.2538722,43.9842384 37.5914389,43.9087417 36.6248944,43.9087417 L36.6248944,43.4517881 L45.8434278,43.4517881 C48.87925,43.4517881 51.05695,43.9074172 52.3791722,44.8239735 C53.69875,45.7392053 54.3598611,46.8849007 54.3598611,48.2570861 C54.3598611,49.42 53.9327833,50.414702 53.07995,51.2425166 C52.2271167,52.0703311 51.0516611,52.633245 49.5549056,52.9325828 C48.54605,53.1431788 46.8417056,53.2504636 44.4392278,53.2504636 L44.4392278,53.2504636 Z" id="Fill-44" fill="#F7971D"></path>
            </g>
        </g>
    </g>
</svg>